<svg width="150" height="151" viewBox="0 0 246 247" fill="none" xmlns="http://www.w3.org/2000/svg">
<path class="wufoo-letter" d="M114.619 100.773L118.854 101.363L117.635 97.258C117.174 95.7074 117.01 94.5168 117.01 92.7095C117.01 85.6188 122.046 80.5486 128.422 74.1289C136.904 65.5888 147.46 54.961 147.46 35.4997C147.46 19.5065 136.407 4.74512 121.751 1.16332L116.985 -8.68435e-05L118.477 4.67954C118.503 4.75925 121.032 12.7618 121.032 19.087V19.9559C120.798 32.3531 115.525 39.7135 109.951 47.4955C104.158 55.58 98.1685 63.9404 98.1685 77.8374C98.1685 89.4132 105.394 99.4881 114.619 100.773Z" fill="#11B2E5"/>
<path class="wufoo-letter" d="M132.73 101.467L135.308 104.885L137.344 101.118C138.114 99.6939 138.839 98.7368 140.114 97.4597C145.121 92.4455 152.263 92.4268 161.305 92.4019C173.332 92.3697 188.3 92.3296 202.042 78.5677C213.334 67.2592 215.939 48.9946 208.105 36.083L205.557 31.8861L203.308 36.252C203.271 36.3266 199.408 43.7763 194.943 48.2473L194.292 48.8997C185.385 57.4686 176.472 58.9373 167.048 60.4896C157.244 62.1047 147.105 63.7747 137.293 73.6009C129.119 81.7854 127.115 94.0266 132.73 101.467Z" fill="#EE222B"/>
<path class="wufoo-letter" d="M241.001 118.649C240.922 118.675 232.932 121.207 226.615 121.207H225.711C213.352 120.964 206.011 115.688 198.248 110.109C190.174 104.309 181.827 98.3106 167.95 98.3106C156.392 98.3106 146.331 105.546 145.047 114.784L144.456 119.026L148.556 117.805C150.103 117.343 151.292 117.179 153.099 117.179C160.178 117.179 165.243 122.223 171.653 128.608C180.181 137.102 190.794 147.673 210.226 147.673C226.196 147.673 240.937 136.604 244.513 121.926L245.673 117.155L241.001 118.649Z" fill="#41B93C"/>
<path class="wufoo-letter" d="M197.495 195.225L196.864 194.592C188.291 185.666 186.824 176.735 185.272 167.29C183.66 157.471 181.993 147.318 172.18 137.492C164.009 129.309 151.785 127.297 144.352 132.922L140.939 135.506L144.703 137.544C146.123 138.313 147.078 139.039 148.356 140.317C153.362 145.331 153.381 152.483 153.405 161.537C153.439 173.582 153.479 188.572 167.221 202.334C174.134 209.257 183.65 212.921 192.95 212.92C198.839 212.92 204.645 211.449 209.644 208.407L213.836 205.855L209.476 203.603C209.402 203.565 201.962 199.697 197.495 195.225Z" fill="white"/>
<path class="wufoo-letter" d="M131.056 145.257L126.82 144.666L128.04 148.771C128.501 150.323 128.665 151.513 128.665 153.32C128.665 160.411 123.628 165.481 117.253 171.901C108.771 180.441 98.2148 191.069 98.2148 210.53C98.2148 226.524 109.268 241.285 123.925 244.866L128.69 246.03L127.198 241.35C127.172 241.27 124.643 233.268 124.643 226.944V226.007C124.894 213.649 130.158 206.303 135.723 198.535C141.515 190.45 147.505 182.089 147.505 168.193C147.505 156.617 140.279 146.542 131.056 145.257Z" fill="white"/>
<path class="wufoo-letter" d="M112.945 144.563L110.367 141.146L108.331 144.913C107.561 146.337 106.836 147.294 105.559 148.571C100.553 153.584 93.4115 153.604 84.3706 153.628C72.3435 153.66 57.3749 153.701 43.6334 167.462C32.3413 178.771 29.734 197.036 37.5691 209.947L40.1167 214.144L42.3656 209.778C42.404 209.704 46.2662 202.254 50.7319 197.782L51.3642 197.149C60.2764 188.563 69.1953 187.095 78.6269 185.541C88.4304 183.926 98.5687 182.256 108.381 172.429C116.555 164.243 118.559 152.003 112.945 144.563Z" fill="white"/>
<path class="wufoo-letter" d="M77.7243 147.719C89.2846 147.719 99.3449 140.483 100.626 131.246L101.216 127.003L97.1163 128.225C95.5685 128.688 94.3814 128.851 92.5756 128.851C85.4963 128.851 80.4328 123.807 74.0218 117.423C65.4946 108.928 54.8816 98.357 35.4484 98.357C19.4778 98.357 4.73834 109.426 1.16228 124.104L0 128.876L4.67286 127.381C4.75302 127.356 12.744 124.823 19.0589 124.823H19.9616C32.3205 125.066 39.6635 130.342 47.4264 135.92C55.4997 141.721 63.848 147.719 77.7243 147.719Z" fill="white"/>
<path class="wufoo-letter" d="M48.1785 50.8053L48.8079 51.4351C57.3825 60.3608 58.8502 69.2949 60.4014 78.7395C62.0142 88.5584 63.6823 98.7119 73.4948 108.538C78.5431 113.594 85.1358 116.293 91.1894 116.292C94.9388 116.292 98.4798 115.258 101.321 113.108L104.732 110.526L100.971 108.487C99.5518 107.717 98.595 106.99 97.3175 105.712C92.3122 100.698 92.2919 93.5467 92.2681 84.4927C92.2354 72.4477 92.1953 57.4579 78.4545 43.6966C67.1607 32.387 48.9225 29.7753 36.0306 37.6229L31.8398 40.1741L36.1983 42.4263C36.2728 42.4648 43.7128 46.3332 48.1785 50.8053Z" fill="white"/>
</svg>
