<svg width="50" height="50" viewBox="0 0 50 50" fill="none" xmlns="http://www.w3.org/2000/svg">
<g clip-path="url(#clip0_138_3888)">
<path d="M25 48C37.7025 48 48 37.7025 48 25C48 12.2975 37.7025 2 25 2C12.2975 2 2 12.2975 2 25C2 37.7025 12.2975 48 25 48Z" stroke="#31279C" stroke-width="4" stroke-linecap="round" stroke-linejoin="round"/>
<path d="M31.7875 29.56C31.7475 26.96 29.8775 23.1 24.8975 23.1C22.0475 23.1 21.6575 21.36 21.6275 20.71C21.6575 19.9 22.0275 18.02 24.8575 18.02C27.7975 18.02 28.1375 20.09 28.1675 20.73C28.1975 21.72 29.0475 22.57 30.0175 22.48C31.0175 22.46 31.8075 21.63 31.7775 20.63C31.7275 18.46 30.2875 15.39 26.6775 14.6L26.7075 12.83C26.7175 11.83 25.9175 11.01 24.9175 11H24.8975C23.9075 11 23.0975 11.8 23.0875 12.79L23.0675 14.59C19.4275 15.36 18.0275 18.47 18.0075 20.7C18.0475 23.12 19.9175 26.72 24.8975 26.72C27.7075 26.72 28.1075 28.76 28.1675 29.52C28.0875 30.01 27.6275 31.8 24.8975 31.8C22.1275 31.8 21.6875 29.94 21.6175 29.39C21.5275 28.39 20.6675 27.67 19.6475 27.75C18.6475 27.84 17.9175 28.72 18.0075 29.71C18.1575 31.42 19.4475 34.46 23.0775 35.23V37.3C23.0775 38.3 23.8875 39.11 24.8875 39.11C25.8875 39.11 26.7075 38.3 26.7075 37.3V35.23C28.0274 34.9786 29.232 34.3108 30.1445 33.3245C31.057 32.3382 31.6293 31.0854 31.7775 29.75L31.7875 29.65V29.56Z" fill="#31279C"/>
</g>
<defs>
<clipPath id="clip0_138_3888">
<rect width="50" height="50" fill="white"/>
</clipPath>
</defs>
</svg>
