<svg width="45" height="50" viewBox="0 0 45 50" fill="none" xmlns="http://www.w3.org/2000/svg">
<path d="M7.5 50C5.41667 50 3.64583 49.2708 2.1875 47.8125C0.729167 46.3542 0 44.5833 0 42.5V37C0 35.8954 0.895431 35 2 35H7.5V2C7.5 0.89543 8.39543 0 9.5 0H43C44.1046 0 45 0.895431 45 2V42.5C45 44.5833 44.2708 46.3542 42.8125 47.8125C41.3542 49.2708 39.5833 50 37.5 50H7.5ZM37.5 45C38.2083 45 38.8025 44.76 39.2825 44.28C39.7625 43.8 40.0017 43.2067 40 42.5V7C40 5.89543 39.1046 5 38 5H14.5C13.3954 5 12.5 5.89543 12.5 7V35H33C34.1046 35 35 35.8954 35 37V42.5C35 43.2083 35.24 43.8025 35.72 44.2825C36.2 44.7625 36.7933 45.0017 37.5 45ZM17 17.5C15.8954 17.5 15 16.6046 15 15.5V14.5C15 13.3954 15.8954 12.5 17 12.5H35.5C36.6046 12.5 37.5 13.3954 37.5 14.5V15.5C37.5 16.6046 36.6046 17.5 35.5 17.5H17ZM17 25C15.8954 25 15 24.1046 15 23V22C15 20.8954 15.8954 20 17 20H35.5C36.6046 20 37.5 20.8954 37.5 22V23C37.5 24.1046 36.6046 25 35.5 25H17Z" fill="#31279C"/>
</svg>
