<svg width="63" height="64" viewBox="0 0 63 64" fill="none" xmlns="http://www.w3.org/2000/svg">
<g clip-path="url(#clip0_7625_777)">
<path fill-rule="evenodd" clip-rule="evenodd" d="M31.5951 17C35.2047 17 38.1413 19.9367 38.1413 23.5465C38.1413 27.1563 35.2047 30.0927 31.5951 30.0927C27.9856 30.0927 25.0488 27.1563 25.0488 23.5462C25.0489 19.9367 27.9856 17 31.5951 17ZM32.3104 20.0573C32.3104 19.6623 31.9901 19.3421 31.5951 19.3421C31.2001 19.3421 30.8799 19.6622 30.8799 20.0573C30.8799 20.4523 31.2 20.7726 31.5951 20.7726C31.9902 20.7726 32.3104 20.4521 32.3104 20.0573ZM32.0479 27.2056V22.4078C32.0479 22.1579 31.8454 21.9552 31.5952 21.9552C31.3451 21.9552 31.1426 22.1579 31.1426 22.4078V27.2056C31.1426 27.4557 31.3451 27.6582 31.5952 27.6582C31.8453 27.6583 32.0479 27.4557 32.0479 27.2056Z" fill="#31279C"/>
<path fill-rule="evenodd" clip-rule="evenodd" d="M15.9595 46.544C15.9595 46.9183 15.6552 47.223 15.2805 47.223H11.679C11.3047 47.223 11 46.9184 11 46.544V35.5673C11 35.1927 11.3046 34.8883 11.679 34.8883H15.2807C15.6554 34.8883 15.9598 35.1927 15.9598 35.5673V46.544H15.9595Z" fill="#31279C"/>
<path fill-rule="evenodd" clip-rule="evenodd" d="M49.1808 30.0574C49.8416 29.6455 50.6849 29.6624 51.3288 30.1003C51.882 30.4765 52.2044 31.1008 52.1902 31.7698C52.1762 32.4389 51.8284 33.049 51.2593 33.4022L36.1797 42.7735C33.8727 44.2063 31.2181 44.9634 28.5026 44.9634C28.5015 44.9634 28.5007 44.9634 28.4994 44.9634L16.8647 44.961V37.9624C17.035 37.7387 17.2193 37.5253 17.4134 37.3257C19.8332 34.8423 23.7982 34.8779 25.1009 34.8896H25.1052H34.0189C34.6002 34.8896 35.1634 35.1308 35.5646 35.5509C35.9609 35.9663 36.1651 36.5075 36.1383 37.0743C36.1335 37.1773 36.1214 37.2781 36.1023 37.3762C36.1021 37.3778 36.1017 37.3795 36.1015 37.3808C35.9127 38.3443 35.0664 39.0609 34.0552 39.0609H26.8466C26.5964 39.0609 26.394 39.2633 26.394 39.5135C26.394 39.7635 26.5964 39.9661 26.8466 39.9661H34.0555C35.44 39.9661 36.609 39.0297 36.9473 37.7428L49.1808 30.0574Z" fill="#31279C"/>
</g>
<rect x="1.5" y="2" width="60" height="60" rx="30" stroke="#31279C" stroke-width="3"/>
<defs>
<clipPath id="clip0_7625_777">
<rect y="0.5" width="63" height="63" rx="31.5" fill="white"/>
</clipPath>
</defs>
</svg>
