<svg width="50" height="50" viewBox="0 0 50 50" fill="none" xmlns="http://www.w3.org/2000/svg">
<g clip-path="url(#clip0_138_3913)">
<path d="M15.6248 1.56248C15.6248 1.14809 15.7894 0.750663 16.0825 0.457641C16.3755 0.164619 16.7729 0 17.1873 0H32.8121C33.2265 0 33.624 0.164619 33.917 0.457641C34.21 0.750663 34.3746 1.14809 34.3746 1.56248V9.2499H42.187C42.6014 9.2499 42.9989 9.41452 43.2919 9.70754C43.5849 10.0006 43.7495 10.398 43.7495 10.8124V23.5122L48.8557 24.9341C49.0758 24.9952 49.2798 25.1039 49.4533 25.2523C49.6268 25.4008 49.7657 25.5855 49.8602 25.7935C49.9546 26.0014 50.0023 26.2276 49.9999 26.4559C49.9975 26.6843 49.9451 26.9094 49.8463 27.1153L44.1433 38.9527C43.6091 38.3495 42.9284 37.8942 42.1668 37.6309C41.4053 37.3677 40.5887 37.3053 39.7961 37.4498C39.0034 37.5943 38.2614 37.9409 37.6418 38.456C37.0222 38.971 36.5459 39.6372 36.259 40.3902L36.2277 40.4621C35.9445 41.0974 35.5811 41.6939 35.1465 42.237C34.3371 43.237 33.5903 43.6245 32.834 43.6245C32.084 43.6245 31.3278 43.2308 30.5028 42.2183C30.0456 41.6475 29.6653 41.0192 29.3716 40.3496C29.0283 39.4583 28.421 38.6932 27.6309 38.1566C26.8408 37.62 25.9056 37.3376 24.9506 37.3471C23.9956 37.3566 23.0663 37.6576 22.287 38.2098C21.5078 38.7621 20.9158 39.5391 20.5904 40.437C20.3044 41.0778 19.9379 41.6795 19.4998 42.2277C18.6873 43.2339 17.9373 43.6245 17.1873 43.6245C16.4342 43.6245 15.6873 43.2339 14.878 42.237C14.4269 41.6723 14.0528 41.0502 13.7655 40.3871C13.4726 39.623 12.9848 38.9489 12.3507 38.4318C11.7165 37.9147 10.958 37.5726 10.1506 37.4396C9.34322 37.3065 8.51508 37.3872 7.74852 37.6735C6.98196 37.9598 6.3037 38.4417 5.78119 39.0714L0.149999 27.1028C0.05351 26.8973 0.00298333 26.6732 0.00193713 26.4461C0.000890928 26.219 0.0493501 25.9944 0.143941 25.788C0.238531 25.5816 0.376979 25.3982 0.549646 25.2508C0.722313 25.1033 0.925049 24.9952 1.14374 24.9341L6.24993 23.5091V10.8155C6.24993 10.4011 6.41455 10.0037 6.70757 9.71066C7.00059 9.41764 7.39802 9.25302 7.81241 9.25302H15.6248V1.56248ZM31.2497 3.12497H18.7498V9.2499H31.2497V3.12497ZM40.6245 22.6404V12.378H9.3749V22.6373L22.4685 18.9873C24.1152 18.5283 25.8561 18.5283 27.5028 18.9873L40.6245 22.6435V22.6404ZM29.3716 40.3496L29.3778 40.3621V40.3714L29.3716 40.3496ZM42.1495 41.7183L42.1402 41.687C42.0594 41.3639 41.8775 41.075 41.621 40.8626C41.3645 40.6501 41.0468 40.5252 40.7143 40.506C40.3818 40.4868 40.0519 40.5743 39.7726 40.7559C39.4934 40.9374 39.2795 41.2035 39.1621 41.5152L39.1464 41.5464L39.0839 41.7058C38.6859 42.6016 38.1733 43.4419 37.559 44.2058C36.4402 45.5807 34.8871 46.7495 32.8121 46.7495C30.7372 46.7495 29.1809 45.5776 28.0559 44.1995C27.404 43.3912 26.8656 42.4975 26.456 41.5433L26.4403 41.5089C26.3269 41.2128 26.1261 40.9582 25.8646 40.779C25.6031 40.5997 25.2932 40.5042 24.9762 40.5052C24.6591 40.5063 24.3499 40.6037 24.0895 40.7847C23.8291 40.9656 23.63 41.2215 23.5185 41.5183L23.5029 41.5495L23.4404 41.7089C23.0445 42.6035 22.534 43.4429 21.9216 44.2058C20.8091 45.5807 19.2623 46.7495 17.1873 46.7495C15.1123 46.7495 13.5623 45.5776 12.4436 44.2026C11.7932 43.3944 11.257 42.5006 10.8499 41.5464L10.8374 41.5152C10.72 41.2035 10.5061 40.9343 10.2268 40.7528C9.94759 40.5712 9.61765 40.4836 9.28513 40.5028C8.95262 40.522 8.63493 40.647 8.37843 40.8594C8.12193 41.0719 7.94004 41.3608 7.85929 41.6839L7.85304 41.7089L7.80929 41.8527C7.52397 42.7129 7.10304 43.5221 6.56243 44.2495C5.60306 45.5308 4.07495 46.7495 1.56248 46.7495C1.14809 46.7495 0.750663 46.9141 0.457641 47.2071C0.164619 47.5001 0 47.8976 0 48.312C0 48.7264 0.164619 49.1238 0.457641 49.4168C0.750663 49.7098 1.14809 49.8744 1.56248 49.8744C5.29994 49.8744 7.67804 47.9745 9.0624 46.1245C9.21865 45.9151 9.36865 45.7026 9.4999 45.4964C9.65927 45.7182 9.83114 45.9464 10.0186 46.1745C11.4374 47.9245 13.7936 49.8744 17.1873 49.8744C20.581 49.8744 22.931 47.9213 24.3497 46.1714C24.574 45.8949 24.7867 45.6092 24.9872 45.3151C25.1841 45.5964 25.3997 45.887 25.6341 46.1776C27.0622 47.9276 29.4184 49.8744 32.8121 49.8744C36.2058 49.8744 38.5621 47.9245 39.9808 46.1745C40.1621 45.9526 40.3308 45.7307 40.4871 45.512C40.6214 45.7214 40.7683 45.937 40.9245 46.1495C42.312 48.012 44.6964 49.9213 48.4557 49.8744C48.6609 49.872 48.8636 49.8291 49.0522 49.7483C49.2408 49.6675 49.4117 49.5504 49.5551 49.4035C49.6984 49.2567 49.8114 49.0831 49.8877 48.8926C49.9639 48.7021 50.0019 48.4984 49.9994 48.2932C49.997 48.088 49.9541 47.8853 49.8733 47.6967C49.7925 47.5081 49.6754 47.3372 49.5285 47.1939C49.3817 47.0505 49.2081 46.9375 49.0176 46.8612C48.8271 46.785 48.6234 46.747 48.4182 46.7495C45.9089 46.7807 44.387 45.5651 43.4339 44.2839C42.8931 43.5495 42.4742 42.7328 42.1933 41.8652L42.1495 41.7183Z" fill="#31279C"/>
</g>
<defs>
<clipPath id="clip0_138_3913">
<rect width="50" height="50" fill="white"/>
</clipPath>
</defs>
</svg>
