<svg xmlns="http://www.w3.org/2000/svg" viewBox="0 0 49.52 50"><defs><style>.cls-1,.cls-2{fill:#31279c;}.cls-2{fill-rule:evenodd;}</style></defs><g id="Layer_2" data-name="Layer 2"><g id="Layer_1-2" data-name="Layer 1"><rect class="cls-1" y="38.5" width="49.52" height="11.5" rx="3.09"/><path class="cls-2" d="M6.87,36.38a4,4,0,0,0,1.91,1.06,4.06,4.06,0,0,0,.92.11A3.87,3.87,0,0,0,11,37.34l6.83-2.28a21.47,21.47,0,0,0,2.7-1,12.73,12.73,0,0,0,2.41-1.49,23.36,23.36,0,0,0,2.11-2L40.69,14.92A8.74,8.74,0,0,0,34.51,0a8.68,8.68,0,0,0-6.18,2.56L12.64,18.24a26.58,26.58,0,0,0-2,2.1,13.34,13.34,0,0,0-1.49,2.42,23.69,23.69,0,0,0-1,2.7L5.91,32.29a3.94,3.94,0,0,0-.1,2.18A4,4,0,0,0,6.87,36.38Zm9-15L27.34,9.88a13.34,13.34,0,0,0,6,6L21.9,27.38c-.95.94-1.35,1.34-1.75,1.66a8.6,8.6,0,0,1-1.59,1,20.76,20.76,0,0,1-2.27.82l-4.11,1.37L11,31.07,12.41,27a23.29,23.29,0,0,1,.82-2.27,8.45,8.45,0,0,1,1-1.59A21.08,21.08,0,0,1,15.88,21.35ZM34.5,4.49a4.27,4.27,0,0,1,4.26,4.26,4.22,4.22,0,0,1-1.24,3l-.7.71-.5-.16A8.69,8.69,0,0,1,33,10.22,8.69,8.69,0,0,1,31,6.93c-.06-.17-.11-.34-.16-.5l.7-.7a4.24,4.24,0,0,1,3-1.24"/></g></g></svg>