<svg width="50" height="56" viewBox="0 0 50 56" fill="none" xmlns="http://www.w3.org/2000/svg">
<path d="M9.25 4.5C9.25 3.83696 9.51339 3.20107 9.98223 2.73223C10.4511 2.26339 11.087 2 11.75 2H36.75C37.413 2 38.0489 2.26339 38.5178 2.73223C38.9866 3.20107 39.25 3.83696 39.25 4.5V34.5C39.25 35.163 38.9866 35.7989 38.5178 36.2678C38.0489 36.7366 37.413 37 36.75 37H11.75C11.087 37 10.4511 36.7366 9.98223 36.2678C9.51339 35.7989 9.25 35.163 9.25 34.5V4.5Z" stroke="#31279C" stroke-width="4" stroke-linejoin="round"/>
<path d="M16.75 32C18.1307 32 19.25 30.8807 19.25 29.5C19.25 28.1193 18.1307 27 16.75 27C15.3693 27 14.25 28.1193 14.25 29.5C14.25 30.8807 15.3693 32 16.75 32Z" fill="#31279C"/>
<path d="M31.75 32C33.1307 32 34.25 30.8807 34.25 29.5C34.25 28.1193 33.1307 27 31.75 27C30.3693 27 29.25 28.1193 29.25 29.5C29.25 30.8807 30.3693 32 31.75 32Z" fill="#31279C"/>
<path d="M9.25 22H39.25M20.5 44.5H28M16.75 52H31.75" stroke="#31279C" stroke-width="4" stroke-linecap="round" stroke-linejoin="round"/>
<path d="M15.5 37L8 52M33 37L40.5 52" stroke="#31279C" stroke-width="4" stroke-linecap="round"/>
<path d="M39.25 15.75V28.25M9.25 15.75V28.25" stroke="#31279C" stroke-width="4" stroke-linecap="round" stroke-linejoin="round"/>
<rect x="11" y="24" width="27" height="11" rx="0.5" fill="#31279C"/>
<path d="M17.5 32C18.8807 32 20 30.8807 20 29.5C20 28.1193 18.8807 27 17.5 27C16.1193 27 15 28.1193 15 29.5C15 30.8807 16.1193 32 17.5 32Z" fill="white"/>
<path d="M31.5 32C32.8807 32 34 30.8807 34 29.5C34 28.1193 32.8807 27 31.5 27C30.1193 27 29 28.1193 29 29.5C29 30.8807 30.1193 32 31.5 32Z" fill="white"/>
</svg>
