<svg width="50" height="50" viewBox="0 0 50 50" fill="none" xmlns="http://www.w3.org/2000/svg">
<path d="M25.2464 2H24.2344C23.0144 2 21.8444 2.48464 20.9817 3.34731C20.1191 4.20998 19.6344 5.38 19.6344 6.6V7.014C19.6336 7.82067 19.4207 8.61294 19.017 9.31133C18.6133 10.0097 18.033 10.5897 17.3344 10.993L16.3454 11.568C15.6461 11.9717 14.8529 12.1843 14.0454 12.1843C13.238 12.1843 12.4447 11.9717 11.7454 11.568L11.4004 11.384C10.3449 10.7751 9.09086 10.6099 7.91364 10.9247C6.73642 11.2395 5.7322 12.0085 5.12143 13.063L4.61543 13.937C4.00654 14.9926 3.84135 16.2466 4.15614 17.4238C4.47093 18.601 5.23997 19.6052 6.29443 20.216L6.63943 20.446C7.33467 20.8474 7.91276 21.4237 8.31625 22.1177C8.71974 22.8117 8.93459 23.5992 8.93943 24.402V25.575C8.94265 26.3856 8.73163 27.1826 8.32773 27.8854C7.92384 28.5881 7.34141 29.1717 6.63943 29.577L6.29443 29.784C5.23997 30.3948 4.47093 31.399 4.15614 32.5762C3.84135 33.7534 4.00654 35.0074 4.61543 36.063L5.12143 36.937C5.7322 37.9915 6.73642 38.7605 7.91364 39.0753C9.09086 39.3901 10.3449 39.2249 11.4004 38.616L11.7454 38.432C12.4447 38.0283 13.238 37.8157 14.0454 37.8157C14.8529 37.8157 15.6461 38.0283 16.3454 38.432L17.3344 39.007C18.033 39.4103 18.6133 39.9903 19.017 40.6887C19.4207 41.3871 19.6336 42.1793 19.6344 42.986V43.4C19.6344 44.62 20.1191 45.79 20.9817 46.6527C21.8444 47.5154 23.0144 48 24.2344 48H25.2464C26.4664 48 27.6365 47.5154 28.4991 46.6527C29.3618 45.79 29.8464 44.62 29.8464 43.4V42.986C29.8473 42.1793 30.0602 41.3871 30.4639 40.6887C30.8676 39.9903 31.4478 39.4103 32.1464 39.007L33.1354 38.432C33.8347 38.0283 34.628 37.8157 35.4354 37.8157C36.2429 37.8157 37.0361 38.0283 37.7354 38.432L38.0804 38.616C39.136 39.2249 40.39 39.3901 41.5672 39.0753C42.7444 38.7605 43.7487 37.9915 44.3594 36.937L44.8654 36.04C45.4743 34.9844 45.6395 33.7304 45.3247 32.5532C45.0099 31.376 44.2409 30.3718 43.1864 29.761L42.8414 29.577C42.1395 29.1717 41.557 28.5881 41.1531 27.8854C40.7492 27.1826 40.5382 26.3856 40.5414 25.575V24.425C40.5382 23.6144 40.7492 22.8174 41.1531 22.1146C41.557 21.4119 42.1395 20.8283 42.8414 20.423L43.1864 20.216C44.2409 19.6052 45.0099 18.601 45.3247 17.4238C45.6395 16.2466 45.4743 14.9926 44.8654 13.937L44.3594 13.063C43.7487 12.0085 42.7444 11.2395 41.5672 10.9247C40.39 10.6099 39.136 10.7751 38.0804 11.384L37.7354 11.568C37.0361 11.9717 36.2429 12.1843 35.4354 12.1843C34.628 12.1843 33.8347 11.9717 33.1354 11.568L32.1464 10.993C31.4478 10.5897 30.8676 10.0097 30.4639 9.31133C30.0602 8.61294 29.8473 7.82067 29.8464 7.014V6.6C29.8464 5.38 29.3618 4.20998 28.4991 3.34731C27.6365 2.48464 26.4664 2 25.2464 2Z" stroke="#31279C" stroke-width="4" stroke-linecap="round" stroke-linejoin="round"/>
<path d="M24.7403 31.9001C28.5511 31.9001 31.6403 28.8109 31.6403 25.0001C31.6403 21.1893 28.5511 18.1001 24.7403 18.1001C20.9296 18.1001 17.8403 21.1893 17.8403 25.0001C17.8403 28.8109 20.9296 31.9001 24.7403 31.9001Z" stroke="#31279C" stroke-width="4" stroke-linecap="round" stroke-linejoin="round"/>
</svg>
