<svg width="52" height="53" viewBox="0 0 52 53" fill="none" xmlns="http://www.w3.org/2000/svg">
<path d="M46.0803 14.6115C48.7741 14.6115 50.9781 12.4075 50.9781 9.71377C50.9781 7.02002 48.7741 4.81604 46.0803 4.81604C43.3866 4.81604 41.1826 7.02002 41.1826 9.71377C41.1826 12.4075 43.3866 14.6115 46.0803 14.6115ZM45.6722 8.89748H46.4885C46.9783 8.89748 47.3048 9.22399 47.3048 9.71377C47.3048 10.2035 46.9783 10.5301 46.4885 10.5301H45.6722C45.2641 10.5301 44.8559 10.2035 44.8559 9.71377C44.8559 9.22399 45.2641 8.89748 45.6722 8.89748Z" fill="#31279C"/>
<path d="M50.5699 50.6098H49.3454V15.3462C48.3659 15.9176 47.3047 16.2441 46.0803 16.2441C44.9375 16.2441 43.7947 15.9176 42.8151 15.3462V50.6098H41.5907C41.1826 50.6098 40.7744 51.018 40.7744 51.4261C40.7744 51.9159 41.1826 52.2424 41.5907 52.2424H50.5699C50.978 52.2424 51.3862 51.9159 51.3862 51.4261C51.3862 51.018 51.0596 50.6098 50.5699 50.6098Z" fill="#31279C"/>
<path d="M49.3457 4.08144V3.26515C49.3457 1.46932 47.8764 0 46.0806 0C44.2847 0 42.8154 1.46932 42.8154 3.26515V4.08144C43.795 3.51004 44.8561 3.18352 46.0806 3.18352C47.305 3.18352 48.3662 3.51004 49.3457 4.08144Z" fill="#31279C"/>
<path d="M14.4085 6.6119C14.1637 6.6119 13.9188 6.77516 13.7555 6.93842L10.4904 11.428C10.3271 11.6729 10.2455 11.9994 10.4087 12.2443C10.572 12.4892 10.8169 12.7341 11.1434 12.7341H17.6737V15.2646H16.286C15.7962 15.2646 15.4697 15.6727 15.4697 16.0808V20.9786C15.4697 21.3867 15.7962 21.7949 16.286 21.7949H17.837V22.9377C16.3676 23.2642 15.3065 24.5702 15.3065 26.1212C15.3065 27.0191 15.7146 27.8354 16.286 28.4884L3.71518 32.6515H1.42957C0.939797 32.6515 0.613281 33.0596 0.613281 33.4678V51.4261C0.613281 51.9159 0.939797 52.2424 1.42957 52.2424H35.632C36.1218 52.2424 36.4483 51.9159 36.4483 51.4261V33.4678C36.4483 33.0596 36.1218 32.6515 35.632 32.6515H33.3464L20.9389 28.57C21.1837 28.3252 21.4286 27.9986 21.6735 27.6721C21.9184 27.264 21.7551 26.7742 21.347 26.5293C20.9389 26.2844 20.4491 26.5293 20.2858 26.9375C19.9593 27.5089 19.3879 27.8354 18.8165 27.8354C17.9186 27.8354 17.1023 27.1007 17.1023 26.1212C17.1023 25.2233 17.837 24.407 18.8165 24.407C19.2246 24.407 19.6328 23.9988 19.6328 23.5907V21.7132H20.9389C21.347 21.7132 21.7551 21.3051 21.7551 20.8969V15.9992C21.7551 15.5911 21.347 15.1829 20.9389 15.1829H19.4695V12.6524H40.5298C40.04 11.7545 39.7951 10.6933 39.7951 9.63217C39.7951 8.57099 40.04 7.50982 40.5298 6.53027H14.4085V6.6119ZM7.87824 46.9365C7.87824 47.3447 7.4701 47.7528 7.06196 47.7528C6.65381 47.7528 6.24567 47.3447 6.24567 46.9365V37.9574C6.24567 37.5492 6.65381 37.1411 7.06196 37.1411C7.4701 37.1411 7.87824 37.5492 7.87824 37.9574V46.9365ZM13.5923 46.9365C13.5923 47.3447 13.2657 47.7528 12.776 47.7528C12.2862 47.7528 11.9597 47.3447 11.9597 46.9365V37.9574C11.9597 37.5492 12.2862 37.1411 12.776 37.1411C13.2657 37.1411 13.5923 37.5492 13.5923 37.9574V46.9365ZM19.3063 46.9365C19.3063 47.3447 18.8981 47.7528 18.49 47.7528C18.0818 47.7528 17.6737 47.3447 17.6737 46.9365V37.9574C17.6737 37.5492 18.0818 37.1411 18.49 37.1411C18.8981 37.1411 19.3063 37.5492 19.3063 37.9574V46.9365ZM25.0203 46.9365C25.0203 47.3447 24.6121 47.7528 24.204 47.7528C23.7142 47.7528 23.3877 47.3447 23.3877 46.9365V37.9574C23.3877 37.5492 23.7142 37.1411 24.204 37.1411C24.6121 37.1411 25.0203 37.5492 25.0203 37.9574V46.9365ZM29.1017 37.9574C29.1017 37.5492 29.5099 37.1411 29.918 37.1411C30.3262 37.1411 30.7343 37.5492 30.7343 37.9574V46.9365C30.7343 47.3447 30.3262 47.7528 29.918 47.7528C29.5099 47.7528 29.1017 47.3447 29.1017 46.9365V37.9574ZM18.49 29.5496L28.0406 32.6515H8.93942L18.49 29.5496Z" fill="#31279C"/>
</svg>
