<svg width="50" height="50" viewBox="0 0 50 50" fill="none" xmlns="http://www.w3.org/2000/svg">
<path d="M12.4545 39.2728C14.764 39.2728 16.6363 37.4005 16.6363 35.091C16.6363 32.7815 14.764 30.9092 12.4545 30.9092C10.145 30.9092 8.27271 32.7815 8.27271 35.091C8.27271 37.4005 10.145 39.2728 12.4545 39.2728Z" fill="#31279C" stroke="#31279C" stroke-width="4" stroke-linejoin="round"/>
<path d="M36.4999 39.2728C38.8094 39.2728 40.6818 37.4005 40.6818 35.091C40.6818 32.7815 38.8094 30.9092 36.4999 30.9092C34.1904 30.9092 32.3181 32.7815 32.3181 35.091C32.3181 37.4005 34.1904 39.2728 36.4999 39.2728Z" fill="#31279C" stroke="#31279C" stroke-width="4" stroke-linejoin="round"/>
<path d="M8.27273 35.0909H2V10H32.3182V35.0909H16.6364" stroke="#31279C" stroke-width="4" stroke-linecap="round" stroke-linejoin="round"/>
<path d="M32.3181 35.0911V17.3184H41.2791L47.9999 26.2047V35.0911H41.5298" stroke="#31279C" stroke-width="4" stroke-linecap="round" stroke-linejoin="round"/>
</svg>
